STARTFONT 2.1
FONT -FontForge-SciFi-Book-R-Normal--50-480-75-75-P-385-ISO10646-1
SIZE 48 75 75
FONTBOUNDINGBOX 59 63 0 -8
COMMENT "Generated by fontforge, http://fontforge.sourceforge.net"
STARTPROPERTIES 38
FOUNDRY "FontForge"
FAMILY_NAME "SciFi"
WEIGHT_NAME "Book"
SLANT "R"
SETWIDTH_NAME "Normal"
ADD_STYLE_NAME ""
PIXEL_SIZE 50
POINT_SIZE 480
RESOLUTION_X 75
RESOLUTION_Y 75
SPACING "P"
AVERAGE_WIDTH 385
CHARSET_REGISTRY "ISO10646"
CHARSET_ENCODING "1"
FONTNAME_REGISTRY ""
CHARSET_COLLECTIONS "ISO10646-1"
FONT_NAME "SciFi"
FACE_NAME "SciFi"
FONT_VERSION "1.2"
FONT_ASCENT 40
FONT_DESCENT 10
UNDERLINE_POSITION -7
UNDERLINE_THICKNESS 1
X_HEIGHT 40
CAP_HEIGHT 40
RAW_ASCENT 800
RAW_DESCENT 200
NORM_SPACE 25
RELATIVE_WEIGHT 40
RELATIVE_SETWIDTH 50
SUPERSCRIPT_X 0
SUPERSCRIPT_Y 22
SUPERSCRIPT_SIZE 32
SUBSCRIPT_X 0
SUBSCRIPT_Y 7
SUBSCRIPT_SIZE 32
AVG_LOWERCASE_WIDTH 427
AVG_UPPERCASE_WIDTH 450
ENDPROPERTIES
CHARS 129
STARTCHAR space
ENCODING 32
SWIDTH 500 0
DWIDTH 25 0
BBX 1 1 0 0
BITMAP
00
ENDCHAR
STARTCHAR exclam
ENCODING 33
SWIDTH 264 0
DWIDTH 13 0
BBX 10 42 1 -1
BITMAP
1E00
7F80
6180
C0C0
C0C0
C0C0
C0C0
C0C0
C0C0
C0C0
C0C0
C0C0
C0C0
C0C0
C0C0
C0C0
C0C0
C0C0
C0C0
C0C0
C0C0
C0C0
C0C0
6180
7F80
1E00
0000
0000
0000
0000
0000
0000
1E00
7F80
6180
C0C0
C0C0
C0C0
C0C0
6180
7F80
1E00
ENDCHAR
STARTCHAR quotedbl
ENCODING 34
SWIDTH 584 0
DWIDTH 29 0
BBX 27 18 1 23
BITMAP
01E00F80
07F01FC0
0E3830E0
18186060
18186060
1818C0C0
3030C0C0
3030C0C0
3030C0C0
30318180
60618180
60618180
60618180
C0C30300
E0C30300
E1838E00
7F01FC00
3E00F000
ENDCHAR
STARTCHAR numbersign
ENCODING 35
SWIDTH 904 0
DWIDTH 45 0
BBX 42 42 1 -1
BITMAP
001E001E0000
007F807F8000
006180618000
00C0C0C0C000
00C0C0C0C000
00C0C0C0C000
00C0C0C0C000
00C0C0C0C000
1FC0FFC0FE00
7FC0FFC0FF80
600000000180
C000000000C0
C000000000C0
C000000000C0
C000000000C0
600000000180
7FC0FFC0FF80
1FC0FFC0FE00
00C0C0C0C000
00C0C0C0C000
00C0C0C0C000
00C0C0C0C000
00C0C0C0C000
00C0C0C0C000
1FC0FFC0FE00
7FC0FFC0FF80
600000000180
C000000000C0
C000000000C0
C000000000C0
C000000000C0
600000000180
7FC0FFC0FF80
1FC0FFC0FE00
00C0C0C0C000
00C0C0C0C000
00C0C0C0C000
00C0C0C0C000
00C0C0C0C000
006180618000
007F807F8000
001E001E0000
ENDCHAR
STARTCHAR dollar
ENCODING 36
SWIDTH 904 0
DWIDTH 46 0
BBX 42 55 2 -8
BITMAP
00001E000000
00007F800000
0000E1800000
0000C0C00000
0000C0C00000
0000C0C00000
007FC0FFFE00
01FFC0FFFF80
07C000000180
0E00000000C0
1C00000000C0
3800000000C0
3000000000C0
700000000180
601FC0FFFF80
E07FC0FFFE00
C060C0C00000
C0C0C0C00000
C0C0C0C00000
C0C0C0C00000
C0C0C0C00000
C060C0C00000
E03FC0FF8000
601FC0FFE000
7000C0C0F800
3000C0C01C00
3800C0C00E00
1C00C0C00700
0F00C0C00300
07C0C0C00180
01FFC0FE0180
007FC0FF81C0
0000C0C180C0
0000C0C0C0C0
0000C0C0C0C0
0000C0C0C0C0
0000C0C0C0C0
0000C0C180C0
1FFFC0FF81C0
7FFFC07E0180
600000000180
C00000000300
C00000000700
C00000000E00
C00000001C00
60000000F800
7FFFC0FFE000
1FFFC0FF8000
0000C0C00000
0000C0C00000
0000C0C00000
0000C0C00000
000061800000
00007F800000
00001E000000
ENDCHAR
STARTCHAR percent
ENCODING 37
SWIDTH 584 0
DWIDTH 29 0
BBX 27 42 1 -1
BITMAP
1E001E00
7F807F00
61806180
C0C0C0C0
C0C0C0C0
C0C180C0
C0C180C0
61830180
7F830180
1E060300
00060300
000C0600
000C0600
00180C00
00180C00
00301800
00301800
00603000
00603000
00C06000
00C06000
0180C000
0180C000
03018000
03018000
06030000
06030000
0C060000
0C060000
180C0000
180C0000
30180000
30180F00
60303FC0
603030C0
C0606060
C0606060
C0C06060
C0C06060
618030C0
7F803FC0
1E000F00
ENDCHAR
STARTCHAR ampersand
ENCODING 38
SWIDTH 904 0
DWIDTH 45 0
BBX 42 42 1 -1
BITMAP
007FFFFE0000
01FFFFFF8000
07C000018000
0E000000C000
1C000000C000
38000000C000
30000000C000
700000018000
601FFFFF8000
E07FFFFE0000
C06000000000
C0C000000000
C0C000000000
C0C000000000
C0C000000000
C06000000000
E03E001FFE00
601F807FFF80
700180600180
3000C0C000C0
1800C0C000C0
1800C0C000C0
3000C0C000C0
6001806000C0
601F807FC0C0
E07E001FC0C0
C0600000C0C0
C0C00000C0C0
C0C00000C0C0
C0C00000C0C0
C0C00000C0C0
C060000180C0
E07FFFFF81C0
601FFFFE0180
700000000180
300000000300
380000000700
1C0000000E00
0F0000001C00
07C00000F800
01FFFFFFE000
007FFFFF8000
ENDCHAR
STARTCHAR quotesingle
ENCODING 39
SWIDTH 279 0
DWIDTH 14 0
BBX 12 18 1 23
BITMAP
03C0
0FF0
1C70
1830
3030
3030
3030
6060
6060
6060
6060
C0C0
C0C0
C0C0
C180
C380
FF00
7C00
ENDCHAR
STARTCHAR parenleft
ENCODING 40
SWIDTH 424 0
DWIDTH 21 0
BBX 18 42 1 -1
BITMAP
007E00
01FF80
07C180
0E00C0
1C00C0
3800C0
3000C0
700180
601F80
E07E00
C06000
C0C000
C0C000
C0C000
C0C000
C0C000
C0C000
C0C000
C0C000
C0C000
C0C000
C0C000
C0C000
C0C000
C0C000
C0C000
C0C000
C0C000
C0C000
C0C000
C0C000
C06000
E07E00
601F80
700180
3000C0
3800C0
1C00C0
0F00C0
07C180
01FF80
007E00
ENDCHAR
STARTCHAR parenright
ENCODING 41
SWIDTH 424 0
DWIDTH 21 0
BBX 18 42 1 -1
BITMAP
1F8000
7FE000
60F800
C03C00
C00E00
C00700
C00300
600380
7E0180
1F81C0
0180C0
00C0C0
00C0C0
00C0C0
00C0C0
00C0C0
00C0C0
00C0C0
00C0C0
00C0C0
00C0C0
00C0C0
00C0C0
00C0C0
00C0C0
00C0C0
00C0C0
00C0C0
00C0C0
00C0C0
00C0C0
0180C0
1F81C0
7E0180
600380
C00300
C00700
C00E00
C03C00
60F800
7FE000
1F8000
ENDCHAR
STARTCHAR asterisk
ENCODING 42
SWIDTH 504 0
DWIDTH 25 0
BBX 22 22 2 9
BITMAP
1E01E0
3F07F0
71CE38
E0FC1C
C0780C
C0300C
C0000C
600018
300038
380060
1C00C0
1C00C0
380060
300030
600018
C0000C
C0300C
C0780C
E0FC1C
718638
3F03F0
1E01E0
ENDCHAR
STARTCHAR plus
ENCODING 43
SWIDTH 584 0
DWIDTH 29 0
BBX 26 26 1 7
BITMAP
001E0000
007F8000
00618000
00C0C000
00C0C000
00C0C000
00C0C000
00C0C000
1FC0FE00
7FC0FF80
60000180
C00000C0
C00000C0
C00000C0
C00000C0
60000180
7FC0FF80
1FC0FE00
00C0C000
00C0C000
00C0C000
00C0C000
00C0C000
00618000
007F8000
001E0000
ENDCHAR
STARTCHAR comma
ENCODING 44
SWIDTH 264 0
DWIDTH 13 0
BBX 10 18 1 -5
BITMAP
1E00
7F80
6180
C0C0
C0C0
C0C0
C0C0
C0C0
C0C0
C0C0
C0C0
C0C0
C0C0
C0C0
C0C0
6180
7F80
1E00
ENDCHAR
STARTCHAR hyphen
ENCODING 45
SWIDTH 584 0
DWIDTH 29 0
BBX 26 10 1 15
BITMAP
1FFFFE00
7FFFFF80
60000180
C00000C0
C00000C0
C00000C0
C00000C0
60000180
7FFFFF80
1FFFFE00
ENDCHAR
STARTCHAR period
ENCODING 46
SWIDTH 264 0
DWIDTH 13 0
BBX 10 10 1 -1
BITMAP
1E00
7F80
6180
C0C0
C0C0
C0C0
C0C0
6180
7F80
1E00
ENDCHAR
STARTCHAR slash
ENCODING 47
SWIDTH 584 0
DWIDTH 29 0
BBX 26 42 1 -1
BITMAP
00001E00
00007F00
00006180
0000E0C0
0000C0C0
000180C0
000180C0
00030180
00030180
00060300
00060300
000C0600
000C0600
00180C00
00180C00
00301800
00301800
00603000
00603000
00C06000
00C06000
0180C000
0180C000
03018000
03018000
06030000
06030000
0C060000
0C060000
180C0000
180C0000
30180000
30180000
60300000
60300000
C0600000
C0600000
C0C00000
C0C00000
61800000
7F800000
1E000000
ENDCHAR
STARTCHAR zero
ENCODING 48
SWIDTH 904 0
DWIDTH 45 0
BBX 42 42 1 -1
BITMAP
007FFFFF8000
01FFFFFFE000
07C00000F800
0E0000001C00
1C0000000E00
380000000700
300000000300
600000000180
601FFFFE0180
E07FFFFF81C0
C060000180C0
C0C00000C0C0
C0C00000C0C0
C0C00000C0C0
C0C00000C0C0
C0C00000C0C0
C0C00000C0C0
C0C00000C0C0
C0C00000C0C0
C0C00000C0C0
C0C00000C0C0
C0C00000C0C0
C0C00000C0C0
C0C00000C0C0
C0C00000C0C0
C0C00000C0C0
C0C00000C0C0
C0C00000C0C0
C0C00000C0C0
C0C00000C0C0
C0C00000C0C0
C060000180C0
E07FFFFF81C0
601FFFFE0180
600000000180
300000000300
380000000700
1C0000000E00
0E0000001C00
07C00000F800
01FFFFFFE000
007FFFFF8000
ENDCHAR
STARTCHAR one
ENCODING 49
SWIDTH 424 0
DWIDTH 21 0
BBX 18 42 1 -1
BITMAP
1FFE00
7FFF80
600180
C000C0
C000C0
C000C0
C000C0
6000C0
7FC0C0
1FC0C0
00C0C0
00C0C0
00C0C0
00C0C0
00C0C0
00C0C0
00C0C0
00C0C0
00C0C0
00C0C0
00C0C0
00C0C0
00C0C0
00C0C0
00C0C0
00C0C0
00C0C0
00C0C0
00C0C0
00C0C0
00C0C0
00C0C0
00C0C0
00C0C0
00C0C0
00C0C0
00C0C0
00C0C0
00C0C0
006180
007F80
001E00
ENDCHAR
STARTCHAR two
ENCODING 50
SWIDTH 904 0
DWIDTH 45 0
BBX 42 42 1 -1
BITMAP
001FFFFF8000
007FFFFFE000
00600000F800
00C000001C00
00C000000E00
00C000000700
00C000000300
006000000180
007FFFFE0180
001FFFFF81C0
0000000180C0
00000000C0C0
00000000C0C0
00000000C0C0
00000000C0C0
0000000180C0
007FFFFF81C0
01FFFFFE0180
07C000000180
0F0000000300
1C0000000700
380000000E00
300000001C00
60000000F800
601FFFFFE000
E07FFFFF8000
C06000000000
C0C000000000
C0C000000000
C0C000000000
C0C000000000
C06000000000
E07FFFFFFE00
601FFFFFFF80
700000000180
3000000000C0
3800000000C0
1C00000000C0
0F00000000C0
07C000000180
01FFFFFFFF80
007FFFFFFE00
ENDCHAR
STARTCHAR three
ENCODING 51
SWIDTH 904 0
DWIDTH 45 0
BBX 42 42 1 -1
BITMAP
1FFFFFFF8000
7FFFFFFFE000
60000000F800
C00000001C00
C00000000E00
C00000000700
C00000000300
600000000180
7FFFFFFE0180
1FFFFFFF81C0
0000000180C0
00000000C0C0
00000000C0C0
00000000C0C0
00000000C0C0
0000000180C0
00001FFF81C0
00007FFE0180
000060000180
0000C0000300
0000C0000700
0000C0000700
0000C0000300
000060000180
00007FFE0180
00001FFF81C0
0000000180C0
00000000C0C0
00000000C0C0
00000000C0C0
00000000C0C0
0000000180C0
1FFFFFFF81C0
7FFFFFFE0180
600000000180
C00000000300
C00000000700
C00000000E00
C00000001C00
60000000F800
7FFFFFFFE000
1FFFFFFF8000
ENDCHAR
STARTCHAR four
ENCODING 52
SWIDTH 904 0
DWIDTH 45 0
BBX 42 42 1 -1
BITMAP
1E0000001E00
7F8000007F80
618000006180
C0C00000C0C0
C0C00000C0C0
C0C00000C0C0
C0C00000C0C0
C0C00000C0C0
C0C00000C0C0
C0C00000C0C0
C0C00000C0C0
C0C00000C0C0
C0C00000C0C0
C0C00000C0C0
C0C00000C0C0
C0600000C0C0
E07FFFFFC0C0
601FFFFFC0C0
6000000000C0
3000000000C0
3800000000C0
1C00000000C0
0E00000000C0
07C0000000C0
01FFFFFFC0C0
007FFFFFC0C0
00000000C0C0
00000000C0C0
00000000C0C0
00000000C0C0
00000000C0C0
00000000C0C0
00000000C0C0
00000000C0C0
00000000C0C0
00000000C0C0
00000000C0C0
00000000C0C0
00000000C0C0
000000006180
000000007F80
000000001E00
ENDCHAR
STARTCHAR five
ENCODING 53
SWIDTH 904 0
DWIDTH 45 0
BBX 42 42 1 -1
BITMAP
007FFFFFFE00
01FFFFFFFF80
07C000000180
0E00000000C0
1C00000000C0
3800000000C0
3000000000C0
700000000180
601FFFFFFF80
E07FFFFFFE00
C06000000000
C0C000000000
C0C000000000
C0C000000000
C0C000000000
C0C000000000
C0FFFFFF8000
C0FFFFFFE000
C0000000F800
C00000001C00
C00000000E00
C00000000700
C00000000300
600000000180
7FFFFFFE0180
1FFFFFFF81C0
0000000180C0
00000000C0C0
00000000C0C0
00000000C0C0
00000000C0C0
0000000180C0
1FFFFFFF81C0
7FFFFFFE0180
600000000180
C00000000300
C00000000700
C00000000E00
C00000001C00
60000000F800
7FFFFFFFE000
1FFFFFFF8000
ENDCHAR
STARTCHAR six
ENCODING 54
SWIDTH 904 0
DWIDTH 45 0
BBX 42 42 1 -1
BITMAP
007FFFFFFE00
01FFFFFFFF80
07C000000180
0E00000000C0
1C00000000C0
3800000000C0
3000000000C0
700000000180
601FFFFFFF80
E07FFFFFFE00
C06000000000
C0C000000000
C0C000000000
C0C000000000
C0C000000000
C0C000000000
C0FFFFFF8000
C0FFFFFFE000
C0000000F800
C00000001C00
C00000000E00
C00000000700
C00000000300
C00000000180
C0FFFFFE0180
C0FFFFFF81C0
C0C0000180C0
C0C00000C0C0
C0C00000C0C0
C0C00000C0C0
C0C00000C0C0
C060000180C0
E07FFFFF81C0
601FFFFE0180
700000000180
300000000300
380000000700
1C0000000E00
0F0000001C00
07C00000F800
01FFFFFFE000
007FFFFF8000
ENDCHAR
STARTCHAR seven
ENCODING 55
SWIDTH 904 0
DWIDTH 45 0
BBX 42 42 1 -1
BITMAP
1FFFFFFF8000
7FFFFFFFE000
60000000F800
C00000001C00
C00000000E00
C00000000700
C00000000300
600000000380
7FFFFFFE0180
1FFFFFFF01C0
0000000180C0
00000000C0C0
00000000C0C0
00000000C0C0
00000000C0C0
00000000C0C0
00001FFFC0C0
00007FFFC0C0
0000600000C0
0000C00000C0
0000C00000C0
0000C00000C0
0000C00000C0
0000600000C0
00007FFFC0C0
00001FFFC0C0
00000000C0C0
00000000C0C0
00000000C0C0
00000000C0C0
00000000C0C0
00000000C0C0
00000000C0C0
00000000C0C0
00000000C0C0
00000000C0C0
00000000C0C0
00000000C0C0
00000000C0C0
000000006180
000000007F80
000000001E00
ENDCHAR
STARTCHAR eight
ENCODING 56
SWIDTH 904 0
DWIDTH 45 0
BBX 42 42 1 -1
BITMAP
007FFFFF8000
01FFFFFFE000
07C00000F800
0E0000001C00
1C0000000E00
380000000700
300000000300
700000000180
601FFFFE0180
E07FFFFF81C0
C060000180C0
C0C00000C0C0
C0C00000C0C0
C0C00000C0C0
C0C00000C0C0
C060000180C0
E07FFFFF81C0
601FFFFE0180
700000000180
300000000300
180000000700
180000000700
300000000300
600000000180
601FFFFE0180
E07FFFFF81C0
C060000180C0
C0C00000C0C0
C0C00000C0C0
C0C00000C0C0
C0C00000C0C0
C060000180C0
E07FFFFF81C0
601FFFFE0180
700000000180
300000000300
380000000700
1C0000000E00
0F0000001C00
07C00000F800
01FFFFFFE000
007FFFFF8000
ENDCHAR
STARTCHAR nine
ENCODING 57
SWIDTH 904 0
DWIDTH 45 0
BBX 42 42 1 -1
BITMAP
007FFFFF8000
01FFFFFFE000
07C00000F800
0E0000001C00
1C0000000E00
380000000700
300000000300
700000000180
601FFFFE0180
E07FFFFF81C0
C060000180C0
C0C00000C0C0
C0C00000C0C0
C0C00000C0C0
C0C00000C0C0
C0600000C0C0
E03FFFFFC0C0
601FFFFFC0C0
7000000000C0
3000000000C0
3800000000C0
1C00000000C0
0F00000000C0
07C0000000C0
01FFFFFFC0C0
007FFFFFC0C0
00000000C0C0
00000000C0C0
00000000C0C0
00000000C0C0
00000000C0C0
0000000180C0
1FFFFFFF81C0
7FFFFFFE0180
600000000180
C00000000300
C00000000700
C00000000E00
C00000001C00
60000000F800
7FFFFFFFE000
1FFFFFFF8000
ENDCHAR
STARTCHAR colon
ENCODING 58
SWIDTH 264 0
DWIDTH 13 0
BBX 10 26 1 -1
BITMAP
1E00
7F80
6180
C0C0
C0C0
C0C0
C0C0
6180
7F80
1E00
0000
0000
0000
0000
0000
0000
1E00
7F80
6180
C0C0
C0C0
C0C0
C0C0
6180
7F80
1E00
ENDCHAR
STARTCHAR semicolon
ENCODING 59
SWIDTH 264 0
DWIDTH 13 0
BBX 10 30 1 -5
BITMAP
1E00
7F80
6180
C0C0
C0C0
C0C0
C0C0
6180
7F80
1E00
0000
0000
1E00
7F80
6180
C0C0
C0C0
C0C0
C0C0
C0C0
C0C0
C0C0
C0C0
C0C0
C0C0
C0C0
C0C0
6180
7F80
1E00
ENDCHAR
STARTCHAR less
ENCODING 60
SWIDTH 584 0
DWIDTH 29 0
BBX 26 42 1 -1
BITMAP
00001E00
00007F00
0000E180
0001C0C0
000380C0
000700C0
000E00C0
001C0180
00380300
00700600
00E00C00
01C01800
03803000
07006000
0E00C000
1C018000
38030000
70060000
600C0000
C0180000
C0300000
C0300000
C0180000
600C0000
70060000
38030000
1C018000
0E00C000
07006000
03803000
01C01800
00E00C00
00700600
00380300
001C0180
000E00C0
000700C0
000380C0
0001C0C0
0000E180
00007F00
00001E00
ENDCHAR
STARTCHAR equal
ENCODING 61
SWIDTH 584 0
DWIDTH 29 0
BBX 26 26 1 7
BITMAP
1FFFFE00
7FFFFF80
60000180
C00000C0
C00000C0
C00000C0
C00000C0
60000180
7FFFFF80
1FFFFE00
00000000
00000000
00000000
00000000
00000000
00000000
1FFFFE00
7FFFFF80
60000180
C00000C0
C00000C0
C00000C0
C00000C0
60000180
7FFFFF80
1FFFFE00
ENDCHAR
STARTCHAR greater
ENCODING 62
SWIDTH 584 0
DWIDTH 29 0
BBX 26 42 1 -1
BITMAP
1E000000
3F800000
61C00000
C0E00000
C0700000
C0380000
C01C0000
600E0000
30070000
18038000
0C01C000
0600E000
03007000
01803800
00C01C00
00600E00
00300700
00180380
000C0180
000600C0
000300C0
000300C0
000600C0
000C0180
00180380
00300700
00600E00
00C01C00
01803800
03007000
0600E000
0C01C000
18038000
30070000
600E0000
C01C0000
C0380000
C0700000
C0E00000
61C00000
3F800000
1E000000
ENDCHAR
STARTCHAR question
ENCODING 63
SWIDTH 904 0
DWIDTH 45 0
BBX 42 42 1 -1
BITMAP
1FFFFFFF8000
7FFFFFFFE000
60000000F800
C00000001C00
C00000000E00
C00000000700
C00000000300
600000000180
7FFFFFFE0180
1FFFFFFF81C0
0000000180C0
00000000C0C0
00000000C0C0
00000000C0C0
00000000C0C0
0000000180C0
00001FFF81C0
00007FFE0180
000060000180
0000C0000300
0000C0000700
0000C0000E00
0000C0001C00
00006000F800
00007FFFE000
00001FFF8000
000000000000
000000000000
000000000000
000000000000
000000000000
000000000000
00001E000000
00007F800000
000061800000
0000C0C00000
0000C0C00000
0000C0C00000
0000C0C00000
000061800000
00007F800000
00001E000000
ENDCHAR
STARTCHAR at
ENCODING 64
SWIDTH 1224 0
DWIDTH 61 0
BBX 58 42 1 -1
BITMAP
007FFFFFFFFF8000
01FFFFFFFFFFE000
07C000000000F800
0E00000000001C00
1C00000000000E00
3800000000000700
3000000000000300
7000000000000180
601FFFFFFFFE0180
E07FFFFFFFFF81C0
C0600000000180C0
C0C000000000C0C0
C0C000000000C0C0
C0C000000000C0C0
C0C000000000C0C0
C0C000000000C0C0
C0C0007F8000C0C0
C0C001FFE000C0C0
C0C007C0F800C0C0
C0C00E001C00C0C0
C0C01C000E00C0C0
C0C038000700C0C0
C0C030000300C0C0
C0C060000180C0C0
C0C0601E0180C0C0
C0C0E07F81C0C0C0
C0C0C06180C0C0C0
C0C0C0C0C0C0C0C0
C0C0C0C0C0C0C0C0
C0C0C0C0C0C0C0C0
C0C0C0C0C0C0C0C0
C060C061806180C0
E03EE07F807F81C0
601FE01E001E0180
6001E00000000180
3000F00000000300
3800F80000000700
1C00DC000C000E00
0E00CF003E001C00
07C187C0F3C0F800
01FF81FFE1FFE000
007E003F807F0000
ENDCHAR
STARTCHAR A
ENCODING 65
SWIDTH 904 0
DWIDTH 45 0
BBX 42 42 1 -1
BITMAP
007FFFFF8000
01FFFFFFE000
07C00000F800
0E0000003C00
1C0000000E00
380000000700
300000000300
700000000380
601FFFFE0180
E07FFFFF81C0
C060000180C0
C0C00000C0C0
C0C00000C0C0
C0C00000C0C0
C0C00000C0C0
C0C00000C0C0
C0C01FFFC0C0
C0C07FFFC0C0
C0C0600000C0
C0C0C00000C0
C0C0C00000C0
C0C0C00000C0
C0C0C00000C0
C0C0600000C0
C0C07FFFC0C0
C0C01FFFC0C0
C0C00000C0C0
C0C00000C0C0
C0C00000C0C0
C0C00000C0C0
C0C00000C0C0
C0C00000C0C0
C0C00000C0C0
C0C00000C0C0
C0C00000C0C0
C0C00000C0C0
C0C00000C0C0
C0C00000C0C0
C0C00000C0C0
618000006180
7F8000007F80
1E0000001E00
ENDCHAR
STARTCHAR B
ENCODING 66
SWIDTH 904 0
DWIDTH 45 0
BBX 42 42 1 -1
BITMAP
1FFFFF800000
7FFFFFE00000
600000F80000
C000001C0000
C000000E0000
C00000070000
C00000030000
C00000018000
C0FFFE018000
C0FFFF81C000
C0C00180C000
C0C000C0C000
C0C000C0C000
C0C000C0C000
C0C000C0C000
C0C00180C000
C0C01F81C000
C0C07E01E000
C0C06000F800
C0C0C0001C00
C0C0C0000E00
C0C0C0000700
C0C0C0000300
C0C060000180
C0C07FFE0180
C0C01FFF81C0
C0C0000180C0
C0C00000C0C0
C0C00000C0C0
C0C00000C0C0
C0C00000C0C0
C0C0000180C0
C0FFFFFF81C0
C0FFFFFE0180
C00000000180
C00000000300
C00000000700
C00000000E00
C00000001C00
60000000F800
7FFFFFFFE000
1FFFFFFF8000
ENDCHAR
STARTCHAR C
ENCODING 67
SWIDTH 904 0
DWIDTH 45 0
BBX 42 42 1 -1
BITMAP
007FFFFFFE00
01FFFFFFFF80
07C000000180
0E00000000C0
1C00000000C0
3800000000C0
3000000000C0
700000000180
601FFFFFFF80
E07FFFFFFE00
C06000000000
C0C000000000
C0C000000000
C0C000000000
C0C000000000
C0C000000000
C0C000000000
C0C000000000
C0C000000000
C0C000000000
C0C000000000
C0C000000000
C0C000000000
C0C000000000
C0C000000000
C0C000000000
C0C000000000
C0C000000000
C0C000000000
C0C000000000
C0C000000000
C06000000000
E07FFFFFFE00
601FFFFFFF80
700000000180
3000000000C0
3800000000C0
1C00000000C0
0F00000000C0
07C000000180
01FFFFFFFF80
007FFFFFFE00
ENDCHAR
STARTCHAR D
ENCODING 68
SWIDTH 904 0
DWIDTH 45 0
BBX 42 42 1 -1
BITMAP
1FFFFFFF8000
7FFFFFFFE000
60000000F800
C00000001C00
C00000000E00
C00000000700
C00000000300
C00000000180
C0FFFFFE0180
C0FFFFFF81C0
C0C0000180C0
C0C00000C0C0
C0C00000C0C0
C0C00000C0C0
C0C00000C0C0
C0C00000C0C0
C0C00000C0C0
C0C00000C0C0
C0C00000C0C0
C0C00000C0C0
C0C00000C0C0
C0C00000C0C0
C0C00000C0C0
C0C00000C0C0
C0C00000C0C0
C0C00000C0C0
C0C00000C0C0
C0C00000C0C0
C0C00000C0C0
C0C00000C0C0
C0C00000C0C0
C0C0000180C0
C0FFFFFF81C0
C0FFFFFE0180
C00000000180
C00000000300
C00000000700
C00000000E00
C00000001C00
60000000F800
7FFFFFFFE000
1FFFFFFF8000
ENDCHAR
STARTCHAR E
ENCODING 69
SWIDTH 904 0
DWIDTH 45 0
BBX 42 42 1 -1
BITMAP
007FFFFFFE00
01FFFFFFFF80
07C000000180
0E00000000C0
1C00000000C0
3800000000C0
3000000000C0
700000000180
601FFFFFFF80
E07FFFFFFE00
C06000000000
C0C000000000
C0C000000000
C0C000000000
C0C000000000
C0C000000000
C0C01FFFFE00
C0C07FFFFF80
C0C060000180
C0C0C00000C0
C0C0C00000C0
C0C0C00000C0
C0C0C00000C0
C0C060000180
C0C07FFFFF80
C0C01FFFFE00
C0C000000000
C0C000000000
C0C000000000
C0C000000000
C0C000000000
C06000000000
E07FFFFFFE00
601FFFFFFF80
700000000180
3000000000C0
3800000000C0
1C00000000C0
0F00000000C0
07C000000180
01FFFFFFFF80
007FFFFFFE00
ENDCHAR
STARTCHAR F
ENCODING 70
SWIDTH 904 0
DWIDTH 45 0
BBX 42 42 1 -1
BITMAP
007FFFFFFE00
01FFFFFFFF80
07C000000180
0E00000000C0
1C00000000C0
3800000000C0
3000000000C0
700000000180
601FFFFFFF80
E07FFFFFFE00
C06000000000
C0C000000000
C0C000000000
C0C000000000
C0C000000000
C0C000000000
C0C01FFFFE00
C0C07FFFFF80
C0C060000180
C0C0C00000C0
C0C0C00000C0
C0C0C00000C0
C0C0C00000C0
C0C060000180
C0C07FFFFF80
C0C01FFFFE00
C0C000000000
C0C000000000
C0C000000000
C0C000000000
C0C000000000
C0C000000000
C0C000000000
C0C000000000
C0C000000000
C0C000000000
C0C000000000
C0C000000000
C0C000000000
618000000000
7F8000000000
1E0000000000
ENDCHAR
STARTCHAR G
ENCODING 71
SWIDTH 904 0
DWIDTH 45 0
BBX 42 42 1 -1
BITMAP
007FFFFFFE00
01FFFFFFFF80
07C000000180
0E00000000C0
1C00000000C0
3800000000C0
3000000000C0
700000000180
601FFFFFFF80
E07FFFFFFE00
C06000000000
C0C000000000
C0C000000000
C0C000000000
C0C000000000
C0C000000000
C0C01FFF8000
C0C07FFFE000
C0C06000F800
C0C0C0001C00
C0C0C0000E00
C0C0C0000700
C0C0C0000300
C0C060000180
C0C07FFE0180
C0C01FFF81C0
C0C0000180C0
C0C00000C0C0
C0C00000C0C0
C0C00000C0C0
C0C00000C0C0
C060000180C0
E07FFFFF81C0
601FFFFE0180
700000000180
300000000300
380000000700
1C0000000E00
0F0000001C00
07C00000F800
01FFFFFFE000
007FFFFF8000
ENDCHAR
STARTCHAR H
ENCODING 72
SWIDTH 904 0
DWIDTH 45 0
BBX 42 42 1 -1
BITMAP
1E0000001E00
7F8000007F80
618000006180
C0C00000C0C0
C0C00000C0C0
C0C00000C0C0
C0C00000C0C0
C0C00000C0C0
C0C00000C0C0
C0C00000C0C0
C0C00000C0C0
C0C00000C0C0
C0C00000C0C0
C0C00000C0C0
C0C00000C0C0
C0C00000C0C0
C0FFFFFFC0C0
C0FFFFFFC0C0
C000000000C0
C000000000C0
C000000000C0
C000000000C0
C000000000C0
C000000000C0
C0FFFFFFC0C0
C0FFFFFFC0C0
C0C00000C0C0
C0C00000C0C0
C0C00000C0C0
C0C00000C0C0
C0C00000C0C0
C0C00000C0C0
C0C00000C0C0
C0C00000C0C0
C0C00000C0C0
C0C00000C0C0
C0C00000C0C0
C0C00000C0C0
C0C00000C0C0
618000006180
7F8000007F80
1E0000001E00
ENDCHAR
STARTCHAR I
ENCODING 73
SWIDTH 264 0
DWIDTH 13 0
BBX 10 42 1 -1
BITMAP
1E00
7F80
6180
C0C0
C0C0
C0C0
C0C0
C0C0
C0C0
C0C0
C0C0
C0C0
C0C0
C0C0
C0C0
C0C0
C0C0
C0C0
C0C0
C0C0
C0C0
C0C0
C0C0
C0C0
C0C0
C0C0
C0C0
C0C0
C0C0
C0C0
C0C0
C0C0
C0C0
C0C0
C0C0
C0C0
C0C0
C0C0
C0C0
6180
7F80
1E00
ENDCHAR
STARTCHAR J
ENCODING 74
SWIDTH 744 0
DWIDTH 37 0
BBX 34 42 1 -1
BITMAP
0000001E00
0000007F80
0000006180
000000C0C0
000000C0C0
000000C0C0
000000C0C0
000000C0C0
000000C0C0
000000C0C0
000000C0C0
000000C0C0
000000C0C0
000000C0C0
000000C0C0
000000C0C0
000000C0C0
000000C0C0
000000C0C0
000000C0C0
000000C0C0
000000C0C0
000000C0C0
000000C0C0
000000C0C0
000000C0C0
000000C0C0
000000C0C0
000000C0C0
000000C0C0
000000C0C0
00000180C0
1FFFFF81C0
7FFFFE0180
6000000380
C000000300
C000000700
C000000E00
C000003C00
600000F800
7FFFFFE000
1FFFFF8000
ENDCHAR
STARTCHAR K
ENCODING 75
SWIDTH 904 0
DWIDTH 45 0
BBX 42 42 1 -1
BITMAP
1E00007FFE00
7F8001FFFF80
618007C00180
C0C00E0000C0
C0C01C0000C0
C0C0380000C0
C0C0300000C0
C0C070000180
C0C0601FFF80
C0C0E07FFE00
C0C0C0600000
C0C0C0C00000
C0C0C0C00000
C0C0C0C00000
C0C0C0C00000
C0C0C0C00000
C0FFC0FF8000
C0FFC0FFE000
C0000000F800
C00000001C00
C00000000E00
C00000000700
C00000000300
C00000000180
C0FFFFFE0180
C0FFFFFF81C0
C0C0000180C0
C0C00000C0C0
C0C00000C0C0
C0C00000C0C0
C0C00000C0C0
C0C00000C0C0
C0C00000C0C0
C0C00000C0C0
C0C00000C0C0
C0C00000C0C0
C0C00000C0C0
C0C00000C0C0
C0C00000C0C0
618000006180
7F8000007F80
1E0000001E00
ENDCHAR
STARTCHAR L
ENCODING 76
SWIDTH 744 0
DWIDTH 37 0
BBX 34 42 1 -1
BITMAP
1E00000000
7F80000000
6180000000
C0C0000000
C0C0000000
C0C0000000
C0C0000000
C0C0000000
C0C0000000
C0C0000000
C0C0000000
C0C0000000
C0C0000000
C0C0000000
C0C0000000
C0C0000000
C0C0000000
C0C0000000
C0C0000000
C0C0000000
C0C0000000
C0C0000000
C0C0000000
C0C0000000
C0C0000000
C0C0000000
C0C0000000
C0C0000000
C0C0000000
C0C0000000
C0C0000000
C060000000
E07FFFFE00
601FFFFF80
7000000180
30000000C0
38000000C0
1C000000C0
0F000000C0
07C0000180
01FFFFFF80
007FFFFE00
ENDCHAR
STARTCHAR M
ENCODING 77
SWIDTH 1225 0
DWIDTH 61 0
BBX 58 42 1 -1
BITMAP
007F8000007F8000
01FFE00001FFE000
07C0F80007C0F800
0E003C000E003C00
1C000E001C000E00
3800070038000700
3000030030000300
6000038060000380
601E0180601E0180
E07F01C0E07F01C0
C06180C0C06180C0
C0C0C0C0C0C0C0C0
C0C0C0C0C0C0C0C0
C0C0C0C0C0C0C0C0
C0C0C0C0C0C0C0C0
C0C0C0C0C0C0C0C0
C0C0C0C0C0C0C0C0
C0C0C0C0C0C0C0C0
C0C0C0C0C0C0C0C0
C0C0C0C0C0C0C0C0
C0C0C0C0C0C0C0C0
C0C0C0C0C0C0C0C0
C0C0C0C0C0C0C0C0
C0C0C0C0C0C0C0C0
C0C0C0C0C0C0C0C0
C0C0C0C0C0C0C0C0
C0C0C0C0C0C0C0C0
C0C0C0C0C0C0C0C0
C0C0C0C0C0C0C0C0
C0C0C0C0C0C0C0C0
C0C0C0C0C0C0C0C0
C0C0C06180C0C0C0
C0C0E07F01C0C0C0
C0C0601E0180C0C0
C0C060000380C0C0
C0C030000300C0C0
C0C038000700C0C0
C0C01C000E00C0C0
C0C00E003C00C0C0
618007C0F8006180
7F8001FFE0007F80
1E00007F80001E00
ENDCHAR
STARTCHAR N
ENCODING 78
SWIDTH 904 0
DWIDTH 45 0
BBX 42 42 1 -1
BITMAP
007F80001E00
01FFE0007F80
07C0F8006180
0E003C00C0C0
1C000E00C0C0
38000700C0C0
30000300C0C0
60000380C0C0
601E0180C0C0
E07F81C0C0C0
C06180C0C0C0
C0C0C0C0C0C0
C0C0C0C0C0C0
C0C0C0C0C0C0
C0C0C0C0C0C0
C0C0C0C0C0C0
C0C0C0C0C0C0
C0C0C0C0C0C0
C0C0C0C0C0C0
C0C0C0C0C0C0
C0C0C0C0C0C0
C0C0C0C0C0C0
C0C0C0C0C0C0
C0C0C0C0C0C0
C0C0C0C0C0C0
C0C0C0C0C0C0
C0C0C0C0C0C0
C0C0C0C0C0C0
C0C0C0C0C0C0
C0C0C0C0C0C0
C0C0C0C0C0C0
C0C0C06180C0
C0C0E07F81C0
C0C0601E0180
C0C060000380
C0C030000300
C0C038000700
C0C01C000E00
C0C00E003C00
618007C0F800
7F8001FFE000
1E00007F8000
ENDCHAR
STARTCHAR O
ENCODING 79
SWIDTH 904 0
DWIDTH 45 0
BBX 42 42 1 -1
BITMAP
007FFFFF8000
01FFFFFFE000
07C00000F800
0E0000003C00
1C0000000E00
380000000700
300000000300
600000000380
601FFFFE0180
E07FFFFF81C0
C060000180C0
C0C00000C0C0
C0C00000C0C0
C0C00000C0C0
C0C00000C0C0
C0C00000C0C0
C0C00000C0C0
C0C00000C0C0
C0C00000C0C0
C0C00000C0C0
C0C00000C0C0
C0C00000C0C0
C0C00000C0C0
C0C00000C0C0
C0C00000C0C0
C0C00000C0C0
C0C00000C0C0
C0C00000C0C0
C0C00000C0C0
C0C00000C0C0
C0C00000C0C0
C060000180C0
E07FFFFF81C0
601FFFFE0180
600000000380
300000000300
380000000700
1C0000000E00
0E0000003C00
07C00000F800
01FFFFFFE000
007FFFFF8000
ENDCHAR
STARTCHAR P
ENCODING 80
SWIDTH 904 0
DWIDTH 45 0
BBX 42 42 1 -1
BITMAP
007FFFFF8000
01FFFFFFE000
07C00000F800
0E0000001C00
1C0000000E00
380000000700
300000000300
600000000380
601FFFFE0180
E07FFFFF01C0
C060000180C0
C0C00000C0C0
C0C00000C0C0
C0C00000C0C0
C0C00000C0C0
C0C0000180C0
C0C01FFF81C0
C0C07FFE0180
C0C060000380
C0C0C0000300
C0C0C0000700
C0C0C0000E00
C0C0C0003C00
C0C06000F800
C0C07FFFE000
C0C01FFF8000
C0C000000000
C0C000000000
C0C000000000
C0C000000000
C0C000000000
C0C000000000
C0C000000000
C0C000000000
C0C000000000
C0C000000000
C0C000000000
C0C000000000
C0C000000000
618000000000
7F8000000000
1E0000000000
ENDCHAR
STARTCHAR Q
ENCODING 81
SWIDTH 904 0
DWIDTH 45 0
BBX 42 42 1 -1
BITMAP
007FFF800000
01FFFFE00000
07C000F80000
0E00001C0000
1C00000E0000
380000070000
300000030000
700000018000
601FFE018000
E07FFF81C000
C0600180C000
C0C000C0C000
C0C000C0C000
C0C000C0C000
C0C000C0C000
C0C000C0C000
C0C000C0C000
C0C000C0C000
C0C000C0C000
C0C000C0C000
C0C000C0C000
C0C000C0C000
C0C000C0C000
C0C000618000
C0C0007F8000
C0C0001E0000
C0C000000000
C0C000000000
C0C000000000
C0C000000000
C0C000000000
C06000000000
E07FFFFFFE00
601FFFFFFF80
700000000180
3000000000C0
3800000000C0
1C00000000C0
0F00000000C0
07C000000180
01FFFFFFFF80
007FFFFFFE00
ENDCHAR
STARTCHAR R
ENCODING 82
SWIDTH 904 0
DWIDTH 45 0
BBX 42 42 1 -1
BITMAP
007FFFFF8000
01FFFFFFE000
07C00000F800
0E0000001C00
1C0000000E00
380000000700
300000000300
700000000180
601FFFFE0180
E07FFFFF81C0
C060000180C0
C0C00000C0C0
C0C00000C0C0
C0C00000C0C0
C0C00000C0C0
C0C0000180C0
C0C0007F81C0
C0C001FE0180
C0C007C00180
C0C00E000300
C0C01C000700
C0C038000E00
C0C030001C00
C0C06000F800
C0C0601FE000
C0C0E07F0000
C0C0C0600000
C0C0C0C00000
C0C0C0C00000
C0C0C0C00000
C0C0C0C00000
C0C0C0600000
C0C0E07FFE00
C0C0601FFF80
C0C070000180
C0C0300000C0
C0C0380000C0
C0C01C0000C0
C0C00F0000C0
618007C00180
7F8001FFFF80
1E00007FFE00
ENDCHAR
STARTCHAR S
ENCODING 83
SWIDTH 904 0
DWIDTH 45 0
BBX 42 42 1 -1
BITMAP
007FFFFFFE00
01FFFFFFFF80
07C000000180
0E00000000C0
1C00000000C0
3800000000C0
3000000000C0
700000000180
601FFFFFFF80
E07FFFFFFE00
C06000000000
C0C000000000
C0C000000000
C0C000000000
C0C000000000
C06000000000
E07FFFFF8000
601FFFFFE000
70000000F800
300000001C00
380000000E00
1C0000000700
0F0000000300
07C000000180
01FFFFFE0180
007FFFFF81C0
0000000180C0
00000000C0C0
00000000C0C0
00000000C0C0
00000000C0C0
0000000180C0
1FFFFFFF81C0
7FFFFFFE0180
600000000180
C00000000300
C00000000700
C00000000E00
C00000001C00
60000000F800
7FFFFFFFE000
1FFFFFFF8000
ENDCHAR
STARTCHAR T
ENCODING 84
SWIDTH 904 0
DWIDTH 45 0
BBX 42 42 1 -1
BITMAP
1FFFFFFFFE00
7FFFFFFFFF80
600000000180
C000000000C0
C000000000C0
C000000000C0
C000000000C0
600000000180
7FFFC0FFFF80
1FFFC0FFFE00
0000C0C00000
0000C0C00000
0000C0C00000
0000C0C00000
0000C0C00000
0000C0C00000
0000C0C00000
0000C0C00000
0000C0C00000
0000C0C00000
0000C0C00000
0000C0C00000
0000C0C00000
0000C0C00000
0000C0C00000
0000C0C00000
0000C0C00000
0000C0C00000
0000C0C00000
0000C0C00000
0000C0C00000
0000C0C00000
0000C0C00000
0000C0C00000
0000C0C00000
0000C0C00000
0000C0C00000
0000C0C00000
0000C0C00000
000061800000
00007F800000
00001E000000
ENDCHAR
STARTCHAR U
ENCODING 85
SWIDTH 904 0
DWIDTH 45 0
BBX 42 42 1 -1
BITMAP
1E0000001E00
7F8000007F80
618000006180
C0C00000C0C0
C0C00000C0C0
C0C00000C0C0
C0C00000C0C0
C0C00000C0C0
C0C00000C0C0
C0C00000C0C0
C0C00000C0C0
C0C00000C0C0
C0C00000C0C0
C0C00000C0C0
C0C00000C0C0
C0C00000C0C0
C0C00000C0C0
C0C00000C0C0
C0C00000C0C0
C0C00000C0C0
C0C00000C0C0
C0C00000C0C0
C0C00000C0C0
C0C00000C0C0
C0C00000C0C0
C0C00000C0C0
C0C00000C0C0
C0C00000C0C0
C0C00000C0C0
C0C00000C0C0
C0C00000C0C0
C060000180C0
E07FFFFF81C0
601FFFFE0180
700000000180
300000000300
380000000700
1C0000000E00
0F0000001C00
07C00000F800
01FFFFFFE000
007FFFFF8000
ENDCHAR
STARTCHAR V
ENCODING 86
SWIDTH 1224 0
DWIDTH 61 0
BBX 58 42 1 -1
BITMAP
1FFF8000007FFE00
7FFFE00001FFFF80
6000F80007C00180
C0001C000E0000C0
C0000E001C0000C0
C0000700380000C0
C0000300300000C0
6000018070000180
7FFE0180601FFF80
1FFF81C0E07FFE00
000180C0C0600000
0000C0C0C0C00000
0000C0C0C0C00000
0000C0C0C0C00000
0000C0C0C0C00000
0000C0C0C0C00000
0000C0C0C0C00000
0000C0C0C0C00000
0000C0C0C0C00000
0000C0C0C0C00000
0000C0C0C0C00000
0000C0C0C0C00000
0000C0C0C0C00000
0000C0C0C0C00000
0000C0C0C0C00000
0000C0C0C0C00000
0000C0C0C0C00000
0000C0C0C0C00000
0000C0C0C0C00000
0000C0C0C0C00000
0000C0C0C0C00000
0000C06180C00000
0000E07F81C00000
0000601E01800000
0000700003800000
0000300003000000
0000380007000000
00001C000E000000
00000F003C000000
000007C0F8000000
000001FFE0000000
0000007F80000000
ENDCHAR
STARTCHAR W
ENCODING 87
SWIDTH 1225 0
DWIDTH 61 0
BBX 58 42 1 -1
BITMAP
1E00007F80001E00
7F8001FFE0007F80
618007C0F8006180
C0C00E001C00C0C0
C0C01C000E00C0C0
C0C038000700C0C0
C0C030000300C0C0
C0C070000180C0C0
C0C0601E0180C0C0
C0C0E07F81C0C0C0
C0C0C06180C0C0C0
C0C0C0C0C0C0C0C0
C0C0C0C0C0C0C0C0
C0C0C0C0C0C0C0C0
C0C0C0C0C0C0C0C0
C0C0C0C0C0C0C0C0
C0C0C0C0C0C0C0C0
C0C0C0C0C0C0C0C0
C0C0C0C0C0C0C0C0
C0C0C0C0C0C0C0C0
C0C0C0C0C0C0C0C0
C0C0C0C0C0C0C0C0
C0C0C0C0C0C0C0C0
C0C0C0C0C0C0C0C0
C0C0C0C0C0C0C0C0
C0C0C0C0C0C0C0C0
C0C0C0C0C0C0C0C0
C0C0C0C0C0C0C0C0
C0C0C0C0C0C0C0C0
C0C0C0C0C0C0C0C0
C0C0C0C0C0C0C0C0
C06180C0C06180C0
E07F81C0E03F81C0
601E0180601E0180
7000018070000180
3000030030000300
3800070038000700
1C000E001C000E00
0F001C000F001C00
07C0F80007C0F800
01FFE00001FFE000
007F8000007F8000
ENDCHAR
STARTCHAR X
ENCODING 88
SWIDTH 904 0
DWIDTH 45 0
BBX 42 42 1 -1
BITMAP
1E0000001E00
7F8000007F80
618000006180
C0C00000C0C0
C0C00000C0C0
C0C00000C0C0
C0C00000C0C0
C0C00000C0C0
C0C00000C0C0
C0C00000C0C0
C0C00000C0C0
C0C00000C0C0
C0C00000C0C0
C0C00000C0C0
C0C00000C0C0
C060000180C0
E07FFFFF81C0
601FFFFE0180
600000000180
300000000300
380000000700
380000000700
300000000300
600000000180
601FFFFE0180
E07FFFFF81C0
C060000180C0
C0C00000C0C0
C0C00000C0C0
C0C00000C0C0
C0C00000C0C0
C0C00000C0C0
C0C00000C0C0
C0C00000C0C0
C0C00000C0C0
C0C00000C0C0
C0C00000C0C0
C0C00000C0C0
C0C00000C0C0
618000006180
7F8000007F80
1E0000001E00
ENDCHAR
STARTCHAR Y
ENCODING 89
SWIDTH 904 0
DWIDTH 45 0
BBX 42 42 1 -1
BITMAP
1E0000001E00
7F8000007F80
618000006180
C0C00000C0C0
C0C00000C0C0
C0C00000C0C0
C0C00000C0C0
C0C00000C0C0
C0C00000C0C0
C0C00000C0C0
C0C00000C0C0
C0C00000C0C0
C0C00000C0C0
C0C00000C0C0
C0C00000C0C0
C060000180C0
E07FFFFF81C0
601FFFFE0180
700000000180
300000000300
380000000700
1C0000000E00
0F0000001C00
07C00000F800
01FFC0FFE000
007FC0FF8000
0000C0C00000
0000C0C00000
0000C0C00000
0000C0C00000
0000C0C00000
0000C0C00000
0000C0C00000
0000C0C00000
0000C0C00000
0000C0C00000
0000C0C00000
0000C0C00000
0000C0C00000
000061800000
00007F800000
00001E000000
ENDCHAR
STARTCHAR Z
ENCODING 90
SWIDTH 904 0
DWIDTH 45 0
BBX 42 42 1 -1
BITMAP
1FFFFFFF8000
7FFFFFFFE000
60000000F800
C00000001C00
C00000000E00
C00000000700
C00000000300
600000000180
7FFFFFFE0180
1FFFFFFF81C0
0000000180C0
00000000C0C0
00000000C0C0
00000000C0C0
00000000C0C0
0000000180C0
007FFFFF81C0
01FFFFFE0180
07C000000180
0E0000000300
1C0000000700
380000000E00
300000001C00
60000000F800
601FFFFFE000
E07FFFFF8000
C06000000000
C0C000000000
C0C000000000
C0C000000000
C0C000000000
C06000000000
E07FFFFFFE00
601FFFFFFF80
700000000180
3000000000C0
3800000000C0
1C00000000C0
0F00000000C0
07C000000180
01FFFFFFFF80
007FFFFFFE00
ENDCHAR
STARTCHAR bracketleft
ENCODING 91
SWIDTH 424 0
DWIDTH 21 0
BBX 18 42 1 -1
BITMAP
1FFE00
7FFF80
600180
C000C0
C000C0
C000C0
C000C0
C00180
C0FF80
C0FE00
C0C000
C0C000
C0C000
C0C000
C0C000
C0C000
C0C000
C0C000
C0C000
C0C000
C0C000
C0C000
C0C000
C0C000
C0C000
C0C000
C0C000
C0C000
C0C000
C0C000
C0C000
C0C000
C0FE00
C0FF80
C00180
C000C0
C000C0
C000C0
C000C0
600180
7FFF80
1FFE00
ENDCHAR
STARTCHAR backslash
ENCODING 92
SWIDTH 584 0
DWIDTH 29 0
BBX 26 42 1 -1
BITMAP
1E000000
7F800000
61800000
C0C00000
C0C00000
C0600000
C0600000
60300000
60300000
30180000
30180000
180C0000
180C0000
0C060000
0C060000
06030000
06030000
03018000
03018000
0180C000
0180C000
00C06000
00C06000
00603000
00603000
00301800
00301800
00180C00
00180C00
000C0600
000C0600
00060300
00060300
00030180
00030180
000180C0
000180C0
0000C0C0
0000E0C0
00006180
00007F80
00001E00
ENDCHAR
STARTCHAR bracketright
ENCODING 93
SWIDTH 424 0
DWIDTH 21 0
BBX 18 42 1 -1
BITMAP
1FFE00
7FFF80
600180
C000C0
C000C0
C000C0
C000C0
6000C0
7FC0C0
1FC0C0
00C0C0
00C0C0
00C0C0
00C0C0
00C0C0
00C0C0
00C0C0
00C0C0
00C0C0
00C0C0
00C0C0
00C0C0
00C0C0
00C0C0
00C0C0
00C0C0
00C0C0
00C0C0
00C0C0
00C0C0
00C0C0
00C0C0
1FC0C0
7FC0C0
6000C0
C000C0
C000C0
C000C0
C000C0
600180
7FFF80
1FFE00
ENDCHAR
STARTCHAR asciicircum
ENCODING 94
SWIDTH 904 0
DWIDTH 45 0
BBX 26 18 9 23
BITMAP
001E0000
003F8000
00F3C000
01C0E000
03807000
07003800
0E001C00
1C000E00
38000700
70000380
601C0180
C03E00C0
C07B00C0
C07180C0
C0E0C0C0
61C06180
3F803F00
1E001E00
ENDCHAR
STARTCHAR underscore
ENCODING 95
SWIDTH 584 0
DWIDTH 29 0
BBX 26 10 1 -1
BITMAP
1FFFFE00
7FFFFF80
60000180
C00000C0
C00000C0
C00000C0
C00000C0
60000180
7FFFFF80
1FFFFE00
ENDCHAR
STARTCHAR grave
ENCODING 96
SWIDTH 264 0
DWIDTH 13 0
BBX 10 18 1 23
BITMAP
1E00
7F80
6180
C0C0
C0C0
C0C0
C0C0
C0C0
C0C0
C0C0
C0C0
C0C0
C0C0
C0C0
C0C0
6180
7F80
1E00
ENDCHAR
STARTCHAR a
ENCODING 97
SWIDTH 904 0
DWIDTH 45 0
BBX 42 42 1 -1
BITMAP
1FFFFFFF8000
7FFFFFFFE000
60000000F800
C00000003C00
C00000000E00
C00000000700
C00000000300
600000000380
7FFFFFFE0180
1FFFFFFF81C0
0000000180C0
00000000C0C0
00000000C0C0
00000000C0C0
00000000C0C0
00000000C0C0
007FFE00C0C0
01FFFF80C0C0
07C00180C0C0
0E0000C0C0C0
1C0000C0C0C0
380000C0C0C0
300000C0C0C0
60000180C0C0
601FFF80C0C0
E07FFE00C0C0
C0600000C0C0
C0C00000C0C0
C0C00000C0C0
C0C00000C0C0
C0C00000C0C0
C060000180C0
E07FFFFF81C0
601FFFFE0180
700000000380
300000000300
380000000700
1C0000000E00
0F0000003C00
07C00000F800
01FFFFFFE000
007FFFFF8000
ENDCHAR
STARTCHAR b
ENCODING 98
SWIDTH 904 0
DWIDTH 45 0
BBX 42 42 1 -1
BITMAP
1E0000000000
7F8000000000
618000000000
C0C000000000
C0C000000000
C0C000000000
C0C000000000
C0C000000000
C0C01FFF8000
C0C07FFFE000
C0C06000F800
C0C0C0001C00
C0C0C0000E00
C0C0C0000700
C0C0C0000300
C0C060000180
C0C07FFE0180
C0C01FFF81C0
C0C0000180C0
C0C00000C0C0
C0C00000C0C0
C0C00000C0C0
C0C00000C0C0
C0C00000C0C0
C0C00000C0C0
C0C00000C0C0
C0C00000C0C0
C0C00000C0C0
C0C00000C0C0
C0C00000C0C0
C0C00000C0C0
C0C0000180C0
C0FFFFFF81C0
C0FFFFFE0180
C00000000180
C00000000300
C00000000700
C00000000E00
C00000001C00
60000000F800
7FFFFFFFE000
1FFFFFFF8000
ENDCHAR
STARTCHAR c
ENCODING 99
SWIDTH 904 0
DWIDTH 45 0
BBX 42 42 1 -1
BITMAP
007FFFFFFE00
01FFFFFFFF80
07C000000180
0E00000000C0
1C00000000C0
3800000000C0
3000000000C0
700000000180
601FFFFFFF80
E07FFFFFFE00
C06000000000
C0C000000000
C0C000000000
C0C000000000
C0C000000000
C0C000000000
C0C000000000
C0C000000000
C0C000000000
C0C000000000
C0C000000000
C0C000000000
C0C000000000
C0C000000000
C0C000000000
C0C000000000
C0C000000000
C0C000000000
C0C000000000
C0C000000000
C0C000000000
C06000000000
E07FFFFFFE00
601FFFFFFF80
700000000180
3000000000C0
3800000000C0
1C00000000C0
0F00000000C0
07C000000180
01FFFFFFFF80
007FFFFFFE00
ENDCHAR
STARTCHAR d
ENCODING 100
SWIDTH 904 0
DWIDTH 45 0
BBX 42 42 1 -1
BITMAP
000000001E00
000000007F80
000000006180
00000000C0C0
00000000C0C0
00000000C0C0
00000000C0C0
00000000C0C0
007FFE00C0C0
01FFFF80C0C0
07C00180C0C0
0E0000C0C0C0
1C0000C0C0C0
380000C0C0C0
300000C0C0C0
60000180C0C0
601FFF80C0C0
E07FFE00C0C0
C0600000C0C0
C0C00000C0C0
C0C00000C0C0
C0C00000C0C0
C0C00000C0C0
C0C00000C0C0
C0C00000C0C0
C0C00000C0C0
C0C00000C0C0
C0C00000C0C0
C0C00000C0C0
C0C00000C0C0
C0C00000C0C0
C0600000C0C0
E07FFFFFC0C0
601FFFFFC0C0
6000000000C0
3000000000C0
3800000000C0
1C00000000C0
0E00000000C0
07C000000180
01FFFFFFFF80
007FFFFFFE00
ENDCHAR
STARTCHAR e
ENCODING 101
SWIDTH 904 0
DWIDTH 45 0
BBX 42 42 1 -1
BITMAP
007FFFFF8000
01FFFFFFE000
07C00000F800
0E0000001C00
1C0000000E00
380000000700
300000000300
700000000180
601FFFFE0180
E07FFFFF81C0
C060000180C0
C0C00000C0C0
C0C00000C0C0
C0C00000C0C0
C0C00000C0C0
C0C0000180C0
C0C01FFF81C0
C0C07FFE0180
C0C060000180
C0C0C0000300
C0C0C0000700
C0C0C0000E00
C0C0C0001C00
C0C06000F800
C0C07FFFE000
C0C01FFF8000
C0C000000000
C0C000000000
C0C000000000
C0C000000000
C0C000000000
C06000000000
E07FFFFFFE00
601FFFFFFF80
700000000180
3000000000C0
3800000000C0
1C00000000C0
0F00000000C0
07C000000180
01FFFFFFFF80
007FFFFFFE00
ENDCHAR
STARTCHAR f
ENCODING 102
SWIDTH 904 0
DWIDTH 45 0
BBX 42 42 1 -1
BITMAP
007FFFFFFE00
01FFFFFFFF80
07C000000180
0E00000000C0
1C00000000C0
3800000000C0
3000000000C0
700000000180
601FFFFFFF80
E07FFFFFFE00
C06000000000
C0C000000000
C0C000000000
C0C000000000
C0C000000000
C0C000000000
C0FFFFFFFE00
C0FFFFFFFF80
C00000000180
C000000000C0
C000000000C0
C000000000C0
C000000000C0
C00000000180
C0FFFFFFFF80
C0FFFFFFFE00
C0C000000000
C0C000000000
C0C000000000
C0C000000000
C0C000000000
C0C000000000
C0C000000000
C0C000000000
C0C000000000
C0C000000000
C0C000000000
C0C000000000
C0C000000000
618000000000
7F8000000000
1E0000000000
ENDCHAR
STARTCHAR g
ENCODING 103
SWIDTH 904 0
DWIDTH 45 0
BBX 42 42 1 -1
BITMAP
007FFFFF8000
01FFFFFFE000
07C00000F800
0E0000001C00
1C0000000E00
380000000700
300000000300
700000000180
601FFFFE0180
E07FFFFF81C0
C060000180C0
C0C00000C0C0
C0C00000C0C0
C0C00000C0C0
C0C00000C0C0
C0600000C0C0
E03FFE00C0C0
601FFF80C0C0
70000180C0C0
300000C0C0C0
380000C0C0C0
1C0000C0C0C0
0F0000C0C0C0
07C00180C0C0
01FFFF80C0C0
007FFE00C0C0
00000000C0C0
00000000C0C0
00000000C0C0
00000000C0C0
00000000C0C0
0000000180C0
1FFFFFFF81C0
7FFFFFFE0180
600000000180
C00000000300
C00000000700
C00000000E00
C00000001C00
60000000F800
7FFFFFFFE000
1FFFFFFF8000
ENDCHAR
STARTCHAR h
ENCODING 104
SWIDTH 904 0
DWIDTH 45 0
BBX 42 42 1 -1
BITMAP
1E0000000000
7F8000000000
618000000000
C0C000000000
C0C000000000
C0C000000000
C0C000000000
C0C000000000
C0FFFFFF8000
C0FFFFFFE000
C0000000F800
C00000001C00
C00000000E00
C00000000700
C00000000300
C00000000180
C0FFFFFE0180
C0FFFFFF81C0
C0C0000180C0
C0C00000C0C0
C0C00000C0C0
C0C00000C0C0
C0C00000C0C0
C0C00000C0C0
C0C00000C0C0
C0C00000C0C0
C0C00000C0C0
C0C00000C0C0
C0C00000C0C0
C0C00000C0C0
C0C00000C0C0
C0C00000C0C0
C0C00000C0C0
C0C00000C0C0
C0C00000C0C0
C0C00000C0C0
C0C00000C0C0
C0C00000C0C0
C0C00000C0C0
618000006180
7F8000007F80
1E0000001E00
ENDCHAR
STARTCHAR i
ENCODING 105
SWIDTH 264 0
DWIDTH 13 0
BBX 10 42 1 -1
BITMAP
1E00
7F80
6180
C0C0
C0C0
C0C0
C0C0
C0C0
C0C0
C0C0
C0C0
C0C0
C0C0
C0C0
C0C0
C0C0
C0C0
C0C0
C0C0
C0C0
C0C0
C0C0
C0C0
C0C0
C0C0
C0C0
C0C0
C0C0
C0C0
C0C0
C0C0
C0C0
C0C0
C0C0
C0C0
C0C0
C0C0
C0C0
C0C0
6180
7F80
1E00
ENDCHAR
STARTCHAR j
ENCODING 106
SWIDTH 744 0
DWIDTH 37 0
BBX 34 42 1 -1
BITMAP
0000001E00
0000007F80
0000006180
000000C0C0
000000C0C0
000000C0C0
000000C0C0
000000C0C0
000000C0C0
000000C0C0
000000C0C0
000000C0C0
000000C0C0
000000C0C0
000000C0C0
000000C0C0
000000C0C0
000000C0C0
000000C0C0
000000C0C0
000000C0C0
000000C0C0
000000C0C0
000000C0C0
000000C0C0
000000C0C0
000000C0C0
000000C0C0
000000C0C0
000000C0C0
000000C0C0
00000180C0
1FFFFF81C0
7FFFFE0180
6000000380
C000000300
C000000700
C000000E00
C000003C00
600000F800
7FFFFFE000
1FFFFF8000
ENDCHAR
STARTCHAR k
ENCODING 107
SWIDTH 904 0
DWIDTH 45 0
BBX 42 42 1 -1
BITMAP
1E00007E0000
7F8001FF8000
618007C18000
C0C00E00C000
C0C01C00C000
C0C03800C000
C0C03000C000
C0C060018000
C0C0601F8000
C0C0E03E0000
C0C0C0600000
C0C0C0C00000
C0C0C0C00000
C0C0C0C00000
C0C0C0C00000
C0C0C0C00000
C0FFC0FF8000
C0FFC0FFE000
C0000000F800
C00000001C00
C00000000E00
C00000000700
C00000000300
C00000000180
C0FFFFFE0180
C0FFFFFF81C0
C0C0000180C0
C0C00000C0C0
C0C00000C0C0
C0C00000C0C0
C0C00000C0C0
C0C00000C0C0
C0C00000C0C0
C0C00000C0C0
C0C00000C0C0
C0C00000C0C0
C0C00000C0C0
C0C00000C0C0
C0C00000C0C0
618000006180
7F8000007F80
1E0000001E00
ENDCHAR
STARTCHAR l
ENCODING 108
SWIDTH 744 0
DWIDTH 37 0
BBX 34 42 1 -1
BITMAP
1E00000000
7F80000000
6180000000
C0C0000000
C0C0000000
C0C0000000
C0C0000000
C0C0000000
C0C0000000
C0C0000000
C0C0000000
C0C0000000
C0C0000000
C0C0000000
C0C0000000
C0C0000000
C0C0000000
C0C0000000
C0C0000000
C0C0000000
C0C0000000
C0C0000000
C0C0000000
C0C0000000
C0C0000000
C0C0000000
C0C0000000
C0C0000000
C0C0000000
C0C0000000
C0C0000000
C060000000
E07FFFFE00
601FFFFF80
7000000180
30000000C0
38000000C0
1C000000C0
0F000000C0
07C0000180
01FFFFFF80
007FFFFE00
ENDCHAR
STARTCHAR m
ENCODING 109
SWIDTH 904 0
DWIDTH 45 0
BBX 42 42 1 -1
BITMAP
007F007F8000
01FFE1FFE000
07C0F3C0F800
0E001F003C00
1C000C000E00
380000000700
300000000300
600000000380
601E001E0180
E07F807F01C0
C061806180C0
C0C0C0C0C0C0
C0C0C0C0C0C0
C0C0C0C0C0C0
C0C0C0C0C0C0
C0C0C0C0C0C0
C0C0C0C0C0C0
C0C0C0C0C0C0
C0C0C0C0C0C0
C0C0C0C0C0C0
C0C0C0C0C0C0
C0C0C0C0C0C0
C0C0C0C0C0C0
C0C0C0C0C0C0
C0C0C0C0C0C0
C0C0C0C0C0C0
C0C0C0C0C0C0
C0C0C0C0C0C0
C0C0C0C0C0C0
C0C0C0C0C0C0
C0C0C0C0C0C0
C0C0C0C0C0C0
C0C0C0C0C0C0
C0C0C0C0C0C0
C0C0C0C0C0C0
C0C0C0C0C0C0
C0C0C0C0C0C0
C0C0C0C0C0C0
C0C0C0C0C0C0
618061806180
7F807F807F80
1E001E001E00
ENDCHAR
STARTCHAR n
ENCODING 110
SWIDTH 904 0
DWIDTH 45 0
BBX 42 42 1 -1
BITMAP
007FFFFF8000
01FFFFFFE000
07C00000F800
0E0000003C00
1C0000000E00
380000000700
300000000300
600000000380
601FFFFE0180
E07FFFFF81C0
C060000180C0
C0C00000C0C0
C0C00000C0C0
C0C00000C0C0
C0C00000C0C0
C0C00000C0C0
C0C00000C0C0
C0C00000C0C0
C0C00000C0C0
C0C00000C0C0
C0C00000C0C0
C0C00000C0C0
C0C00000C0C0
C0C00000C0C0
C0C00000C0C0
C0C00000C0C0
C0C00000C0C0
C0C00000C0C0
C0C00000C0C0
C0C00000C0C0
C0C00000C0C0
C0C00000C0C0
C0C00000C0C0
C0C00000C0C0
C0C00000C0C0
C0C00000C0C0
C0C00000C0C0
C0C00000C0C0
C0C00000C0C0
618000006180
7F8000007F80
1E0000001E00
ENDCHAR
STARTCHAR o
ENCODING 111
SWIDTH 904 0
DWIDTH 45 0
BBX 42 42 1 -1
BITMAP
007FFFFF8000
01FFFFFFE000
07C00000F800
0E0000003C00
1C0000000E00
380000000700
300000000300
600000000380
601FFFFE0180
E07FFFFF81C0
C060000180C0
C0C00000C0C0
C0C00000C0C0
C0C00000C0C0
C0C00000C0C0
C0C00000C0C0
C0C00000C0C0
C0C00000C0C0
C0C00000C0C0
C0C00000C0C0
C0C00000C0C0
C0C00000C0C0
C0C00000C0C0
C0C00000C0C0
C0C00000C0C0
C0C00000C0C0
C0C00000C0C0
C0C00000C0C0
C0C00000C0C0
C0C00000C0C0
C0C00000C0C0
C060000180C0
E07FFFFF81C0
601FFFFE0180
600000000380
300000000300
380000000700
1C0000000E00
0E0000003C00
07C00000F800
01FFFFFFE000
007FFFFF8000
ENDCHAR
STARTCHAR p
ENCODING 112
SWIDTH 904 0
DWIDTH 45 0
BBX 42 42 1 -1
BITMAP
1FFFFFFF8000
7FFFFFFFE000
60000000F800
C00000003C00
C00000000E00
C00000000700
C00000000300
C00000000380
C0FFFFFE0180
C0FFFFFF81C0
C0C0000180C0
C0C00000C0C0
C0C00000C0C0
C0C00000C0C0
C0C00000C0C0
C0C0000180C0
C0C01FFF81C0
C0C07FFE0180
C0C060000380
C0C0C0000300
C0C0C0000700
C0C0C0000E00
C0C0C0003C00
C0C06000F800
C0C07FFFE000
C0C01FFF8000
C0C000000000
C0C000000000
C0C000000000
C0C000000000
C0C000000000
C0C000000000
C0C000000000
C0C000000000
C0C000000000
C0C000000000
C0C000000000
C0C000000000
C0C000000000
618000000000
7F8000000000
1E0000000000
ENDCHAR
STARTCHAR q
ENCODING 113
SWIDTH 904 0
DWIDTH 45 0
BBX 42 42 1 -1
BITMAP
007FFFFFFE00
01FFFFFFFF80
07C000000180
0E00000000C0
1C00000000C0
3800000000C0
3000000000C0
7000000000C0
601FFFFFC0C0
E07FFFFFC0C0
C0600000C0C0
C0C00000C0C0
C0C00000C0C0
C0C00000C0C0
C0C00000C0C0
C0600000C0C0
E07FFE00C0C0
601FFF80C0C0
70000180C0C0
300000C0C0C0
380000C0C0C0
1C0000C0C0C0
0F0000C0C0C0
07C00180C0C0
01FFFF80C0C0
007FFE00C0C0
00000000C0C0
00000000C0C0
00000000C0C0
00000000C0C0
00000000C0C0
00000000C0C0
00000000C0C0
00000000C0C0
00000000C0C0
00000000C0C0
00000000C0C0
00000000C0C0
00000000C0C0
000000006180
000000007F80
000000001E00
ENDCHAR
STARTCHAR r
ENCODING 114
SWIDTH 744 0
DWIDTH 37 0
BBX 34 42 1 -1
BITMAP
007FFFFE00
01FFFFFF80
07C0000180
0E000000C0
1C000000C0
38000000C0
30000000C0
6000000180
601FFFFF80
E03FFFFE00
C060000000
C0C0000000
C0C0000000
C0C0000000
C0C0000000
C0C0000000
C0C0000000
C0C0000000
C0C0000000
C0C0000000
C0C0000000
C0C0000000
C0C0000000
C0C0000000
C0C0000000
C0C0000000
C0C0000000
C0C0000000
C0C0000000
C0C0000000
C0C0000000
C0C0000000
C0C0000000
C0C0000000
C0C0000000
C0C0000000
C0C0000000
C0C0000000
C0C0000000
6180000000
7F80000000
1E00000000
ENDCHAR
STARTCHAR s
ENCODING 115
SWIDTH 904 0
DWIDTH 45 0
BBX 42 42 1 -1
BITMAP
007FFFFFFE00
01FFFFFFFF80
07C000000180
0E00000000C0
1C00000000C0
3800000000C0
3000000000C0
700000000180
601FFFFFFF80
E07FFFFFFE00
C06000000000
C0C000000000
C0C000000000
C0C000000000
C0C000000000
C06000000000
E07FFFFF8000
601FFFFFE000
70000000F800
300000001C00
380000000E00
1C0000000700
0F0000000300
07C000000180
01FFFFFE0180
007FFFFF81C0
0000000180C0
00000000C0C0
00000000C0C0
00000000C0C0
00000000C0C0
0000000180C0
1FFFFFFF81C0
7FFFFFFE0180
600000000180
C00000000300
C00000000700
C00000000E00
C00000001C00
60000000F800
7FFFFFFFE000
1FFFFFFF8000
ENDCHAR
STARTCHAR t
ENCODING 116
SWIDTH 744 0
DWIDTH 37 0
BBX 34 42 1 -1
BITMAP
1E00000000
7F80000000
6180000000
C0C0000000
C0C0000000
C0C0000000
C0C0000000
C0C0000000
C0FFFE0000
C0FFFF8000
C000018000
C00000C000
C00000C000
C00000C000
C00000C000
C000018000
C0FFFF8000
C0FFFE0000
C0C0000000
C0C0000000
C0C0000000
C0C0000000
C0C0000000
C0C0000000
C0C0000000
C0C0000000
C0C0000000
C0C0000000
C0C0000000
C0C0000000
C0C0000000
C060000000
E07FFFFE00
601FFFFF80
6000000180
30000000C0
38000000C0
1C000000C0
0E000000C0
07C0000180
01FFFFFF80
007FFFFE00
ENDCHAR
STARTCHAR u
ENCODING 117
SWIDTH 904 0
DWIDTH 45 0
BBX 42 42 1 -1
BITMAP
1E0000001E00
7F8000007F80
618000006180
C0C00000C0C0
C0C00000C0C0
C0C00000C0C0
C0C00000C0C0
C0C00000C0C0
C0C00000C0C0
C0C00000C0C0
C0C00000C0C0
C0C00000C0C0
C0C00000C0C0
C0C00000C0C0
C0C00000C0C0
C0C00000C0C0
C0C00000C0C0
C0C00000C0C0
C0C00000C0C0
C0C00000C0C0
C0C00000C0C0
C0C00000C0C0
C0C00000C0C0
C0C00000C0C0
C0C00000C0C0
C0C00000C0C0
C0C00000C0C0
C0C00000C0C0
C0C00000C0C0
C0C00000C0C0
C0C00000C0C0
C0600000C0C0
E07FFFFFC0C0
601FFFFFC0C0
7000000000C0
3000000000C0
3800000000C0
1C00000000C0
0F00000000C0
07C000000180
01FFFFFFFF80
007FFFFFFE00
ENDCHAR
STARTCHAR v
ENCODING 118
SWIDTH 904 0
DWIDTH 45 0
BBX 42 42 1 -1
BITMAP
1E0000001E00
7F8000007F80
618000006180
C0C00000C0C0
C0C00000C0C0
C0C00000C0C0
C0C00000C0C0
C0C00000C0C0
C0C00000C0C0
C0C00000C0C0
C0C00000C0C0
C0C00000C0C0
C0C00000C0C0
C0C00000C0C0
C0C00000C0C0
C0C00000C0C0
C0C00000C0C0
C0C00000C0C0
C0C00000C0C0
C0C00000C0C0
C0C00000C0C0
C0C00000C0C0
C0C00000C0C0
C0C00000C0C0
C0C00000C0C0
C0C00000C0C0
C0C00000C0C0
C0C00000C0C0
C0C00000C0C0
C0C00000C0C0
C0C00000C0C0
C0C0000180C0
C0FFFFFF81C0
C0FFFFFE0180
C00000000380
C00000000300
C00000000700
C00000000E00
C00000003C00
60000000F800
7FFFFFFFE000
1FFFFFFF8000
ENDCHAR
STARTCHAR w
ENCODING 119
SWIDTH 904 0
DWIDTH 45 0
BBX 42 42 1 -1
BITMAP
1E001E001E00
7F807F807F80
618061806180
C0C0C0C0C0C0
C0C0C0C0C0C0
C0C0C0C0C0C0
C0C0C0C0C0C0
C0C0C0C0C0C0
C0C0C0C0C0C0
C0C0C0C0C0C0
C0C0C0C0C0C0
C0C0C0C0C0C0
C0C0C0C0C0C0
C0C0C0C0C0C0
C0C0C0C0C0C0
C0C0C0C0C0C0
C0C0C0C0C0C0
C0C0C0C0C0C0
C0C0C0C0C0C0
C0C0C0C0C0C0
C0C0C0C0C0C0
C0C0C0C0C0C0
C0C0C0C0C0C0
C0C0C0C0C0C0
C0C0C0C0C0C0
C0C0C0C0C0C0
C0C0C0C0C0C0
C0C0C0C0C0C0
C0C0C0C0C0C0
C0C0C0C0C0C0
C0C0C0C0C0C0
C061806180C0
E07F803F81C0
601E001E0180
700000000180
300000000300
380000000700
1C000C000E00
0F003E001C00
07C0F3C0F800
01FFE1FFE000
007F007F8000
ENDCHAR
STARTCHAR x
ENCODING 120
SWIDTH 904 0
DWIDTH 45 0
BBX 42 42 1 -1
BITMAP
1E0000001E00
7F8000007F80
618000006180
C0C00000C0C0
C0C00000C0C0
C0C00000C0C0
C0C00000C0C0
C0C00000C0C0
C0C00000C0C0
C0C00000C0C0
C0C00000C0C0
C0C00000C0C0
C0C00000C0C0
C0C00000C0C0
C0C00000C0C0
C060000180C0
E07FFFFF81C0
601FFFFE0180
600000000180
300000000300
380000000700
380000000700
300000000300
600000000180
601FFFFE0180
E07FFFFF81C0
C060000180C0
C0C00000C0C0
C0C00000C0C0
C0C00000C0C0
C0C00000C0C0
C0C00000C0C0
C0C00000C0C0
C0C00000C0C0
C0C00000C0C0
C0C00000C0C0
C0C00000C0C0
C0C00000C0C0
C0C00000C0C0
618000006180
7F8000007F80
1E0000001E00
ENDCHAR
STARTCHAR y
ENCODING 121
SWIDTH 904 0
DWIDTH 45 0
BBX 42 42 1 -1
BITMAP
1E0000001E00
7F8000007F80
618000006180
C0C00000C0C0
C0C00000C0C0
C0C00000C0C0
C0C00000C0C0
C0C00000C0C0
C0C00000C0C0
C0C00000C0C0
C0C00000C0C0
C0C00000C0C0
C0C00000C0C0
C0C00000C0C0
C0C00000C0C0
C0600000C0C0
E07FFFFFC0C0
601FFFFFC0C0
6000000000C0
3000000000C0
3800000000C0
1C00000000C0
0E00000000C0
07C0000000C0
01FFFFFFC0C0
007FFFFFC0C0
00000000C0C0
00000000C0C0
00000000C0C0
00000000C0C0
00000000C0C0
0000000180C0
00001FFF81C0
00007FFE0180
000060000180
0000C0000300
0000C0000700
0000C0000E00
0000C0001C00
00006000F800
00007FFFE000
00001FFF8000
ENDCHAR
STARTCHAR z
ENCODING 122
SWIDTH 904 0
DWIDTH 45 0
BBX 42 42 1 -1
BITMAP
001FFFFF8000
007FFFFFE000
00600000F800
00C000001C00
00C000000E00
00C000000700
00C000000300
006000000180
007FFFFE0180
001FFFFF81C0
0000000180C0
00000000C0C0
00000000C0C0
00000000C0C0
00000000C0C0
0000000180C0
007FFFFF81C0
01FFFFFE0180
07C000000180
0F0000000300
1C0000000700
380000000E00
300000001C00
60000000F800
601FFFFFE000
E07FFFFF8000
C06000000000
C0C000000000
C0C000000000
C0C000000000
C0C000000000
C06000000000
E07FFFFFFE00
601FFFFFFF80
700000000180
3000000000C0
3800000000C0
1C00000000C0
0F00000000C0
07C000000180
01FFFFFFFF80
007FFFFFFE00
ENDCHAR
STARTCHAR braceleft
ENCODING 123
SWIDTH 584 0
DWIDTH 29 0
BBX 26 42 1 -1
BITMAP
00007E00
0001FF80
0007C180
000E00C0
001C00C0
001800C0
003000C0
00700180
00601F80
00603E00
00C06000
00C0C000
00C0C000
00C0C000
00C0C000
0180C000
1F818000
7E018000
60038000
C0030000
C0060000
C0060000
C0030000
60018000
7E018000
1F81C000
0180C000
00C0C000
00C0C000
00C0C000
00C0C000
00C06000
00E07E00
00601F80
00700180
003000C0
003800C0
001C00C0
000F00C0
0007C180
0001FF80
00007E00
ENDCHAR
STARTCHAR bar
ENCODING 124
SWIDTH 264 0
DWIDTH 13 0
BBX 10 42 1 -1
BITMAP
1E00
7F80
6180
C0C0
C0C0
C0C0
C0C0
C0C0
C0C0
C0C0
C0C0
C0C0
C0C0
C0C0
C0C0
C0C0
C0C0
C0C0
C0C0
C0C0
C0C0
C0C0
C0C0
C0C0
C0C0
C0C0
C0C0
C0C0
C0C0
C0C0
C0C0
C0C0
C0C0
C0C0
C0C0
C0C0
C0C0
C0C0
C0C0
6180
7F80
1E00
ENDCHAR
STARTCHAR braceright
ENCODING 125
SWIDTH 584 0
DWIDTH 29 0
BBX 26 42 1 -1
BITMAP
1F800000
7FE00000
60F80000
C03C0000
C00E0000
C0070000
C0030000
60038000
7E018000
1F01C000
0180C000
00C0C000
00C0C000
00C0C000
00C0C000
00C0E000
00607E00
00601F80
00700180
003000C0
001800C0
001800C0
003000C0
00600180
00601F80
00E07E00
00C06000
00C0C000
00C0C000
00C0C000
00C0C000
0180C000
1F818000
7E018000
60038000
C0030000
C0060000
C00E0000
C03C0000
60F00000
7FE00000
1F000000
ENDCHAR
STARTCHAR asciitilde
ENCODING 126
SWIDTH 744 0
DWIDTH 37 0
BBX 34 18 1 23
BITMAP
001E001E00
007F803F00
00E1C0E180
01C0E1C0C0
03807380C0
07003F00C0
0E001E01C0
1C000C0180
3800000380
7000000700
600C000E00
E01E001C00
C03F003800
C073807000
C0E1C0E000
61C0E1C000
3F807F8000
1E001E0000
ENDCHAR
STARTCHAR sterling
ENCODING 163
SWIDTH 744 0
DWIDTH 37 0
BBX 34 42 1 -1
BITMAP
007FFE0000
01FFFF8000
07C0018000
0E0000C000
1C0000C000
380000C000
300000C000
7000018000
601FFF8000
E03FFE0000
C060000000
C0C0000000
C0C0000000
C0C0000000
C0C0000000
C0C0000000
C0FE000000
C0FF800000
C001800000
C000C00000
C000C00000
C000C00000
C000C00000
C001800000
C0FF800000
C0FE000000
C0C0000000
C0C0000000
C0C0000000
C0C0000000
C0C0000000
C0C0000000
C0FFFFFE00
C0FFFFFF80
C000000180
C0000000C0
C0000000C0
C0000000C0
C0000000C0
6000000180
7FFFFFFF80
1FFFFFFE00
ENDCHAR
STARTCHAR currency
ENCODING 164
SWIDTH 703 0
DWIDTH 35 0
BBX 33 33 1 -1
BITMAP
1E00003C00
3F80007E00
73C000E700
E0C0018380
C06FFB0180
C03FFE0180
C0180C0380
6000000300
7000000600
3800000C00
1C00001C00
0C00003000
0C03C01800
1807F01800
180C301800
1818181800
1818181800
1818181800
1818181800
1C0C301800
0C07F01800
0E03C03800
1C00001C00
3800000C00
3000000600
6000000300
E000000380
C03C1E0180
C07FFF0180
E0E7F38380
73C001E700
3F0000FE00
1E00003C00
ENDCHAR
STARTCHAR guillemotleft
ENCODING 171
SWIDTH 744 0
DWIDTH 37 0
BBX 34 26 1 -1
BITMAP
001E001E00
007F007F00
00E380E180
01C0C1C0C0
0380C380C0
0700C700C0
0E00CE01C0
1C019C0180
3803380380
7006300700
600C600E00
E018E01C00
C030C03800
C038C03800
E01CE01C00
600E600E00
3007300700
3803B80380
1C019C0180
0E00CE00C0
0700C700C0
0380C380C0
01C0C1C0C0
00E180E180
007F007F00
001E001E00
ENDCHAR
STARTCHAR guillemotright
ENCODING 187
SWIDTH 744 0
DWIDTH 37 0
BBX 34 26 1 -1
BITMAP
1E001E0000
3F803F8000
61C061C000
C0E0C0E000
C070C07000
C038C03800
C01CC01C00
600E600E00
3007300700
3C03380300
1E019C0180
0F01CE01C0
0700C700C0
0700C700C0
0E01CE01C0
1C019C0180
3803380300
7007700700
600E600E00
C01CC01C00
C038C03800
C070C07000
C0E0C0E000
61C061C000
3F803F8000
1E001E0000
ENDCHAR
STARTCHAR questiondown
ENCODING 191
SWIDTH 904 0
DWIDTH 45 0
BBX 42 42 1 -1
BITMAP
00001E000000
00007F800000
000061800000
0000C0C00000
0000C0C00000
0000C0C00000
0000C0C00000
000061800000
00007F800000
00001E000000
000000000000
000000000000
000000000000
000000000000
000000000000
000000000000
007FFE000000
01FFFF800000
07C001800000
0E0000C00000
1C0000C00000
380000C00000
300000C00000
600001800000
601FFF800000
E07FFE000000
C06000000000
C0C000000000
C0C000000000
C0C000000000
C0C000000000
C06000000000
E07FFFFFFE00
601FFFFFFF80
600000000180
3000000000C0
3800000000C0
1C00000000C0
0E00000000C0
07C000000180
01FFFFFFFF80
007FFFFFFE00
ENDCHAR
STARTCHAR Adieresis
ENCODING 196
SWIDTH 904 0
DWIDTH 45 0
BBX 42 54 1 -1
BITMAP
1E0000001E00
7F8000007F80
618000006180
C0C00000C0C0
C0C00000C0C0
C0C00000C0C0
C0C00000C0C0
618000006180
7F8000007F80
1E0000001E00
000000000000
000000000000
007FFFFF8000
01FFFFFFE000
07C00000F800
0E0000003C00
1C0000000E00
380000000700
300000000300
700000000380
601FFFFE0180
E07FFFFF01C0
C060000180C0
C0C00000C0C0
C0C00000C0C0
C0C00000C0C0
C0C00000C0C0
C0C00000C0C0
C0C01FFFC0C0
C0C07FFFC0C0
C0C0600000C0
C0C0C00000C0
C0C0C00000C0
C0C0C00000C0
C0C0C00000C0
C0C0600000C0
C0C07FFFC0C0
C0C01FFFC0C0
C0C00000C0C0
C0C00000C0C0
C0C00000C0C0
C0C00000C0C0
C0C00000C0C0
C0C00000C0C0
C0C00000C0C0
C0C00000C0C0
C0C00000C0C0
C0C00000C0C0
C0C00000C0C0
C0C00000C0C0
C0C00000C0C0
618000006180
7F8000007F80
1E0000001E00
ENDCHAR
STARTCHAR Aring
ENCODING 197
SWIDTH 904 0
DWIDTH 45 0
BBX 42 56 1 -1
BITMAP
00001E000000
00007F800000
0000FFC00000
0000FFC00000
0001F3E00000
0001E1E00000
0001E1E00000
0001B3E00000
0001FFE00000
0000EFC00000
00007F800000
00003F000000
000000000000
000000000000
007FFFFF8000
01FFFFFFE000
07C00000F800
0E0000003C00
1C0000000E00
380000000700
300000000300
700000000380
601FFFFE0180
E07FFFFF81C0
C060000180C0
C0C00000C0C0
C0C00000C0C0
C0C00000C0C0
C0C00000C0C0
C0C00000C0C0
C0C01FFFC0C0
C0C07FFFC0C0
C0C0600000C0
C0C0C00000C0
C0C0C00000C0
C0C0C00000C0
C0C0C00000C0
C0C0600000C0
C0C07FFFC0C0
C0C01FFFC0C0
C0C00000C0C0
C0C00000C0C0
C0C00000C0C0
C0C00000C0C0
C0C00000C0C0
C0C00000C0C0
C0C00000C0C0
C0C00000C0C0
C0C00000C0C0
C0C00000C0C0
C0C00000C0C0
C0C00000C0C0
C0C00000C0C0
618000006180
7F8000007F80
1E0000001E00
ENDCHAR
STARTCHAR Odieresis
ENCODING 214
SWIDTH 904 0
DWIDTH 45 0
BBX 42 54 1 -1
BITMAP
1E0000001E00
7F8000007F80
618000006180
C0C00000C0C0
C0C00000C0C0
C0C00000C0C0
C0C00000C0C0
618000006180
7F8000007F80
1E0000001E00
000000000000
000000000000
007FFFFF8000
01FFFFFFE000
07C00000F800
0E0000003C00
1C0000000E00
380000000700
300000000300
600000000380
601FFFFE0180
E07FFFFF01C0
C060000180C0
C0C00000C0C0
C0C00000C0C0
C0C00000C0C0
C0C00000C0C0
C0C00000C0C0
C0C00000C0C0
C0C00000C0C0
C0C00000C0C0
C0C00000C0C0
C0C00000C0C0
C0C00000C0C0
C0C00000C0C0
C0C00000C0C0
C0C00000C0C0
C0C00000C0C0
C0C00000C0C0
C0C00000C0C0
C0C00000C0C0
C0C00000C0C0
C0C00000C0C0
C060000180C0
E07FFFFF01C0
601FFFFE0180
600000000380
300000000300
380000000700
1C0000000E00
0E0000003C00
07C00000F800
01FFFFFFE000
007FFFFF8000
ENDCHAR
STARTCHAR adieresis
ENCODING 228
SWIDTH 904 0
DWIDTH 45 0
BBX 42 54 1 -1
BITMAP
1E0000001E00
7F8000007F80
618000006180
C0C00000C0C0
C0C00000C0C0
C0C00000C0C0
C0C00000C0C0
618000006180
7F8000007F80
1E0000001E00
000000000000
000000000000
1FFFFFFF8000
7FFFFFFFE000
60000000F800
C00000003C00
C00000000E00
C00000000700
C00000000300
600000000380
7FFFFFFE0180
1FFFFFFF01C0
0000000180C0
00000000C0C0
00000000C0C0
00000000C0C0
00000000C0C0
00000000C0C0
007FFE00C0C0
01FFFF80C0C0
07C00180C0C0
0E0000C0C0C0
1C0000C0C0C0
380000C0C0C0
300000C0C0C0
60000180C0C0
601FFF80C0C0
E07FFE00C0C0
C0600000C0C0
C0C00000C0C0
C0C00000C0C0
C0C00000C0C0
C0C00000C0C0
C060000180C0
E07FFFFF01C0
601FFFFE0180
700000000380
300000000300
380000000700
1C0000000E00
0F0000003C00
07C00000F800
01FFFFFFE000
007FFFFF8000
ENDCHAR
STARTCHAR aring
ENCODING 229
SWIDTH 904 0
DWIDTH 45 0
BBX 42 56 1 -1
BITMAP
00001E000000
00007F800000
0000FFC00000
0000FFC00000
0001F3E00000
0001E1E00000
0001E1E00000
0001B3E00000
0001FFE00000
0000EFC00000
00007F800000
00003F000000
000000000000
000000000000
1FFFFFFF8000
7FFFFFFFE000
60000000F800
C00000003C00
C00000000E00
C00000000700
C00000000300
600000000380
7FFFFFFE0180
1FFFFFFF81C0
0000000180C0
00000000C0C0
00000000C0C0
00000000C0C0
00000000C0C0
00000000C0C0
007FFE00C0C0
01FFFF80C0C0
07C00180C0C0
0E0000C0C0C0
1C0000C0C0C0
380000C0C0C0
300000C0C0C0
60000180C0C0
601FFF80C0C0
E07FFE00C0C0
C0600000C0C0
C0C00000C0C0
C0C00000C0C0
C0C00000C0C0
C0C00000C0C0
C060000180C0
E07FFFFF81C0
601FFFFE0180
700000000380
300000000300
380000000700
1C0000000E00
0F0000003C00
07C00000F800
01FFFFFFE000
007FFFFF8000
ENDCHAR
STARTCHAR odieresis
ENCODING 246
SWIDTH 904 0
DWIDTH 45 0
BBX 42 54 1 -1
BITMAP
1E0000001E00
7F8000007F80
618000006180
C0C00000C0C0
C0C00000C0C0
C0C00000C0C0
C0C00000C0C0
618000006180
7F8000007F80
1E0000001E00
000000000000
000000000000
007FFFFF8000
01FFFFFFE000
07C00000F800
0E0000003C00
1C0000000E00
380000000700
300000000300
600000000380
601FFFFE0180
E07FFFFF01C0
C060000180C0
C0C00000C0C0
C0C00000C0C0
C0C00000C0C0
C0C00000C0C0
C0C00000C0C0
C0C00000C0C0
C0C00000C0C0
C0C00000C0C0
C0C00000C0C0
C0C00000C0C0
C0C00000C0C0
C0C00000C0C0
C0C00000C0C0
C0C00000C0C0
C0C00000C0C0
C0C00000C0C0
C0C00000C0C0
C0C00000C0C0
C0C00000C0C0
C0C00000C0C0
C060000180C0
E07FFFFF01C0
601FFFFE0180
600000000380
300000000300
380000000700
1C0000000E00
0E0000003C00
07C00000F800
01FFFFFFE000
007FFFFF8000
ENDCHAR
STARTCHAR hyphen.dup1
ENCODING 8208
SWIDTH 584 0
DWIDTH 29 0
BBX 26 10 1 15
BITMAP
1FFFFE00
7FFFFF80
60000180
C00000C0
C00000C0
C00000C0
C00000C0
60000180
7FFFFF80
1FFFFE00
ENDCHAR
STARTCHAR quoteleft
ENCODING 8216
SWIDTH 300 0
DWIDTH 15 0
BBX 13 18 1 23
BITMAP
03E0
07F0
0C38
1838
1818
3030
3030
3030
3030
6060
6060
6060
C0C0
C0C0
C0C0
E380
7F00
3C00
ENDCHAR
STARTCHAR quoteright
ENCODING 8217
SWIDTH 291 0
DWIDTH 15 0
BBX 12 18 1 23
BITMAP
03E0
07F0
1C30
1830
3030
3030
3030
3030
6060
6060
6060
E0E0
C0C0
C0C0
C180
E380
FF00
3C00
ENDCHAR
STARTCHAR quotedblleft
ENCODING 8220
SWIDTH 583 0
DWIDTH 29 0
BBX 27 18 1 23
BITMAP
01E00F80
07F01FC0
0E3830E0
18186060
18186060
1818C0C0
3030C0C0
3030C0C0
3030C0C0
30318180
60618180
60618180
60618180
C0C30300
E0C30300
E1838E00
7F01FC00
3E00F000
ENDCHAR
STARTCHAR quotedblright
ENCODING 8221
SWIDTH 589 0
DWIDTH 29 0
BBX 27 18 1 23
BITMAP
01E00F80
07F01FC0
0E3830E0
18186060
18186060
1818C0C0
3030C0C0
3030C0C0
3030C0C0
30318180
60618180
60618180
60618180
C0C30300
E0C30300
E1838E00
7F01FC00
3E00F000
ENDCHAR
STARTCHAR .notdef
ENCODING -1
SWIDTH 500 0
DWIDTH 25 0
BBX 19 40 3 0
BITMAP
FFFFE0
FFFFE0
FFFFE0
E000E0
E000E0
E000E0
E000E0
E000E0
E000E0
E000E0
E000E0
E000E0
E000E0
E000E0
E000E0
E000E0
E000E0
E000E0
E000E0
E000E0
E000E0
E000E0
E000E0
E000E0
E000E0
E000E0
E000E0
E000E0
E000E0
E000E0
E000E0
E000E0
E000E0
E000E0
E000E0
E000E0
E000E0
FFFFE0
FFFFE0
FFFFE0
ENDCHAR
STARTCHAR .null
ENCODING -1
SWIDTH 0 0
DWIDTH 0 0
BBX 1 1 0 0
BITMAP
00
ENDCHAR
STARTCHAR nonmarkingreturn
ENCODING -1
SWIDTH 500 0
DWIDTH 25 0
BBX 1 1 0 0
BITMAP
00
ENDCHAR
STARTCHAR NULL
ENCODING -1
SWIDTH 0 0
DWIDTH 0 0
BBX 1 1 0 0
BITMAP
00
ENDCHAR
STARTCHAR _4
ENCODING -1
SWIDTH 2864 0
DWIDTH 143 0
BBX 1 1 0 0
BITMAP
00
ENDCHAR
STARTCHAR _5
ENCODING -1
SWIDTH 904 0
DWIDTH 45 0
BBX 1 1 0 0
BITMAP
00
ENDCHAR
STARTCHAR _6
ENCODING -1
SWIDTH 904 0
DWIDTH 45 0
BBX 1 1 0 0
BITMAP
00
ENDCHAR
STARTCHAR _7
ENCODING -1
SWIDTH 904 0
DWIDTH 45 0
BBX 1 1 0 0
BITMAP
00
ENDCHAR
STARTCHAR _8
ENCODING -1
SWIDTH 904 0
DWIDTH 45 0
BBX 1 1 0 0
BITMAP
00
ENDCHAR
STARTCHAR _9
ENCODING -1
SWIDTH 904 0
DWIDTH 45 0
BBX 1 1 0 0
BITMAP
00
ENDCHAR
STARTCHAR _10
ENCODING -1
SWIDTH 904 0
DWIDTH 45 0
BBX 1 1 0 0
BITMAP
00
ENDCHAR
STARTCHAR _11
ENCODING -1
SWIDTH 904 0
DWIDTH 45 0
BBX 1 1 0 0
BITMAP
00
ENDCHAR
STARTCHAR _12
ENCODING -1
SWIDTH 904 0
DWIDTH 45 0
BBX 1 1 0 0
BITMAP
00
ENDCHAR
STARTCHAR _13
ENCODING -1
SWIDTH 904 0
DWIDTH 45 0
BBX 1 1 0 0
BITMAP
00
ENDCHAR
STARTCHAR _14
ENCODING -1
SWIDTH 904 0
DWIDTH 45 0
BBX 1 1 0 0
BITMAP
00
ENDCHAR
STARTCHAR _15
ENCODING -1
SWIDTH 904 0
DWIDTH 45 0
BBX 1 1 0 0
BITMAP
00
ENDCHAR
STARTCHAR _16
ENCODING -1
SWIDTH 904 0
DWIDTH 45 0
BBX 1 1 0 0
BITMAP
00
ENDCHAR
STARTCHAR _17
ENCODING -1
SWIDTH 904 0
DWIDTH 45 0
BBX 1 1 0 0
BITMAP
00
ENDCHAR
ENDFONT
